<svg width="48" height="48" fill="none" xmlns="http://www.w3.org/2000/svg" class="MuiSvgIcon-root MuiSvgIcon-fontSizeMedium css-1xm9h1m" focusable="false" aria-hidden="true" viewBox="0 0 48 48"><path fill-rule="evenodd" clip-rule="evenodd" d="M42.311 13.157l-6.443-3.825-5.443 3.198V8.612L23.992 4.8l-6.414 3.812v3.959l-5.506-3.24-6.383 3.83v7.62l5.413 3.23-5.413 3.228v7.559l6.383 3.89 5.44-3.215v3.963l6.446 3.764 6.474-3.764-.014-3.963 5.453 3.216 6.44-3.891v-7.559l-5.436-3.229 5.436-3.23v-7.623zm-6.443-2.63l4.932 2.928-10.872 6.431-2.801-1.67 3.298-1.953v-2.54l5.443-3.195zm-17.282-.722l4.905 2.917v5.858l-.65-.387-1.007-.597-3.248-1.93V9.805zm10.832 5.861l-4.302 2.547-.617.367v-5.858l4.919-2.917v5.861zm-5.423-3.842L19.089 8.91l4.906-2.917 4.916 2.917-4.916 2.914zm-11.916-1.296l5.5 3.236v2.499l3.254 1.933-2.818 1.687-10.819-6.428 4.883-2.927zm-5.383 9.656v-5.83l10.315 6.129-4.905 2.927-5.41-3.226zm4.876 16.996l-4.876-2.972V28.44l4.876 2.924v5.817zm-4.379-9.642l10.826-6.459 4.929 2.876-10.873 6.51-4.882-2.927zm16.262 14.177l-4.936-2.879v-3.96l4.936-2.916v9.755zm0-10.948l-10.876 6.427v-5.83l10.876-6.514v5.917zm-4.43-10.291l2.812-1.683 2.155 1.282 2.13-1.262 2.792 1.663-4.956 2.88-4.932-2.88zm5.437 21.243v-9.76l4.95 2.918.01 3.959-4.96 2.883zm10.902-4.522l-10.902-6.434V24.85l10.902 6.513v5.834zm5.94-2.989l-4.933 2.98v-5.825l4.933-2.93v5.775zm-.5-6.67l-4.936 2.927-10.9-6.51 4.957-2.876 10.879 6.459zm.5-7.354l-5.436 3.23-4.933-2.931 10.369-6.133v5.835z" fill="#0CC2FF"></path></svg>