<svg width="32" height="32" viewBox="0 0 32 32" fill="none" xmlns="http://www.w3.org/2000/svg">
<g id="diamond-01">
<path id="Icon (Stroke)" fill-rule="evenodd" clip-rule="evenodd" d="M9.7937 2.99981C9.80751 2.99988 9.82041 2.99995 9.83231 2.99995H13.3094C13.3248 2.99959 13.3403 2.99959 13.3558 2.99995H18.643C18.6585 2.99959 18.674 2.99959 18.6894 2.99995H22.1665C22.1784 2.99995 22.1913 2.99988 22.2051 2.99981C22.3415 2.99909 22.5665 2.99791 22.7868 3.05718C22.9753 3.10789 23.1534 3.19131 23.313 3.30364C23.4996 3.43494 23.6427 3.60851 23.7295 3.71382C23.7383 3.72447 23.7465 3.73443 23.7541 3.74357L29.5469 10.695C29.6349 10.8004 29.7324 10.9174 29.8102 11.0264C29.8997 11.1519 30.0047 11.322 30.0676 11.5427C30.1529 11.8416 30.1529 12.1583 30.0676 12.4572C30.0047 12.6779 29.8997 12.848 29.8102 12.9735C29.7324 13.0825 29.6349 13.1995 29.5469 13.3049L17.5676 27.6802C17.444 27.8285 17.3138 27.9849 17.191 28.1086C17.0554 28.2452 16.8554 28.4202 16.5715 28.524C16.2021 28.659 15.7967 28.659 15.4272 28.524C15.1433 28.4202 14.9433 28.2452 14.8078 28.1086C14.685 27.9849 14.5547 27.8285 14.4312 27.6802L2.46688 13.323C2.46189 13.317 2.45686 13.311 2.4518 13.3049C2.3639 13.1995 2.26636 13.0825 2.18859 12.9735C2.09902 12.848 1.9941 12.6779 1.93113 12.4572C1.84587 12.1583 1.84587 11.8416 1.93113 11.5427C1.9941 11.322 2.09902 11.1519 2.18859 11.0264C2.26636 10.9174 2.3639 10.8004 2.45181 10.695C2.45687 10.6889 2.46189 10.6829 2.46688 10.6769L8.24466 3.74357C8.25228 3.73442 8.26048 3.72447 8.26927 3.71382C8.35609 3.60851 8.49919 3.43494 8.68576 3.30364C8.84538 3.19131 9.02349 3.10789 9.21196 3.05718C9.43227 2.99791 9.65723 2.99909 9.7937 2.99981ZM17.9453 4.99995H14.0535L12.0535 10.9999H19.9453L17.9453 4.99995ZM22.0535 10.9999L20.0535 4.99995H22.1665C22.1775 4.99995 22.1879 4.99995 22.1977 4.99995C22.2039 5.00747 22.2106 5.01544 22.2177 5.02394L27.1977 10.9999H22.0535ZM19.9261 12.9999L15.9994 24.2893L12.0726 12.9999H19.9261ZM9.94529 10.9999L11.9453 4.99995H9.83231C9.82125 4.99995 9.81088 4.99995 9.80109 4.99995C9.79483 5.00747 9.78818 5.01544 9.7811 5.02394L4.80109 10.9999H9.94529ZM4.80109 12.9999H9.95511L13.6475 23.6157L4.80109 12.9999ZM18.3512 23.6157L22.0437 12.9999H27.1977L18.3512 23.6157Z" fill="#EEEEEE"/>
</g>
</svg>
