<svg width="32" height="32" viewBox="0 0 32 32" fill="none" xmlns="http://www.w3.org/2000/svg">
<g id="vuesax/linear/monitor">
<path id="Union" fill-rule="evenodd" clip-rule="evenodd" d="M30.3346 17.0267C30.3346 17.1136 30.3343 17.1998 30.3335 17.2854C30.3343 17.3013 30.3346 17.3173 30.3346 17.3334C30.3346 17.3571 30.3338 17.3807 30.3322 17.404C30.3027 19.5924 29.9983 21.3344 28.8561 22.4745C27.6494 23.6789 25.7728 23.9467 23.4146 23.9467H17.0015V28.3334H22.0015C22.5537 28.3334 23.0015 28.7811 23.0015 29.3334C23.0015 29.8857 22.5537 30.3334 22.0015 30.3334H16.0109C16.0078 30.3334 16.0046 30.3334 16.0015 30.3334C15.9983 30.3334 15.9952 30.3334 15.992 30.3334H10.0015C9.44918 30.3334 9.00146 29.8857 9.00146 29.3334C9.00146 28.7811 9.44918 28.3334 10.0015 28.3334H15.0015V23.9467H8.58942C6.23011 23.9533 4.3536 23.686 3.14653 22.4812C2.00173 21.3385 1.69845 19.5914 1.67022 17.4011C1.66873 17.3787 1.66797 17.3561 1.66797 17.3334C1.66797 17.318 1.66832 17.3026 1.66901 17.2874C1.66831 17.2056 1.66797 17.1231 1.66797 17.0401V8.58675C1.66797 6.22666 1.9397 4.3508 3.14586 3.14464C4.35202 1.93848 6.22788 1.66675 8.58797 1.66675H23.4013C25.7676 1.66675 27.6465 1.93836 28.8544 3.14398C30.063 4.35027 30.3346 6.22675 30.3346 8.58675V17.0267ZM3.66797 8.58675C3.66797 6.21351 3.98957 5.12936 4.56008 4.55886C5.13058 3.98835 6.21473 3.66675 8.58797 3.66675H23.4013C25.7817 3.66675 26.8694 3.98846 27.4415 4.55952C28.013 5.12989 28.3346 6.21341 28.3346 8.58675V16.3334H3.66797V8.58675ZM3.70718 18.3334H28.2947C28.1923 19.8297 27.896 20.607 27.4432 21.059C26.8732 21.6279 25.7898 21.9467 23.4146 21.9467L8.58797 21.9467L8.58515 21.9468C6.21177 21.9534 5.12877 21.6339 4.55941 21.0656C4.10547 20.6126 3.80893 19.8327 3.70718 18.3334Z" fill="#EEEEEE"/>
</g>
</svg>
