<svg width="20" height="20" viewBox="0 0 20 20" fill="none" xmlns="http://www.w3.org/2000/svg">
<path d="M10 1.95068C14.42 1.95068 18 5.53068 18 9.95068C17.9996 11.6269 17.4735 13.2607 16.4958 14.6223C15.5182 15.9839 14.1381 17.0045 12.55 17.5407C12.15 17.6207 12 17.3707 12 17.1607C12 16.8907 12.01 16.0307 12.01 14.9607C12.01 14.2107 11.76 13.7307 11.47 13.4807C13.25 13.2807 15.12 12.6007 15.12 9.53068C15.12 8.65068 14.81 7.94068 14.3 7.38068C14.38 7.18068 14.66 6.36068 14.22 5.26068C14.22 5.26068 13.55 5.04068 12.02 6.08068C11.38 5.90068 10.7 5.81068 10.02 5.81068C9.34 5.81068 8.66 5.90068 8.02 6.08068C6.49 5.05068 5.82 5.26068 5.82 5.26068C5.38 6.36068 5.66 7.18068 5.74 7.38068C5.23 7.94068 4.92 8.66068 4.92 9.53068C4.92 12.5907 6.78 13.2807 8.56 13.4807C8.33 13.6807 8.12 14.0307 8.05 14.5507C7.59 14.7607 6.44 15.1007 5.72 13.8907C5.57 13.6507 5.12 13.0607 4.49 13.0707C3.82 13.0807 4.22 13.4507 4.5 13.6007C4.84 13.7907 5.23 14.5007 5.32 14.7307C5.48 15.1807 6 16.0407 8.01 15.6707C8.01 16.3407 8.02 16.9707 8.02 17.1607C8.02 17.3707 7.87 17.6107 7.47 17.5407C5.87664 17.0103 4.49073 15.9917 3.50889 14.6293C2.52705 13.2669 1.99912 11.63 2 9.95068C2 5.53068 5.58 1.95068 10 1.95068Z" fill="#8D8F96"/>
</svg>
